<mxfile host="app.diagrams.net" modified="2023-12-07T11:44:45.555Z" agent="Mozilla/5.0 (Windows NT 10.0; Win64; x64) AppleWebKit/537.36 (KHTML, like Gecko) Chrome/120.0.0.0 Safari/537.36" etag="eg0lRrw1I_m_JCYUhvL5" version="22.1.7" type="device">
  <diagram name="Page-1" id="-vSdlsMFju-KKyJHPN7f">
    <mxGraphModel dx="1408" dy="1020" grid="1" gridSize="10" guides="1" tooltips="1" connect="1" arrows="1" fold="1" page="1" pageScale="1" pageWidth="827" pageHeight="1169" math="0" shadow="0">
      <root>
        <mxCell id="0" />
        <mxCell id="1" parent="0" />
        <mxCell id="1MMJRp5JfC30P-ifHzQU-9" style="edgeStyle=orthogonalEdgeStyle;rounded=0;orthogonalLoop=1;jettySize=auto;html=1;exitX=0.5;exitY=1;exitDx=0;exitDy=0;entryX=0.5;entryY=0;entryDx=0;entryDy=0;startArrow=classic;startFill=1;" edge="1" parent="1" source="1MMJRp5JfC30P-ifHzQU-54" target="1MMJRp5JfC30P-ifHzQU-5">
          <mxGeometry relative="1" as="geometry" />
        </mxCell>
        <mxCell id="1MMJRp5JfC30P-ifHzQU-10" style="edgeStyle=orthogonalEdgeStyle;rounded=0;orthogonalLoop=1;jettySize=auto;html=1;exitX=0.5;exitY=1;exitDx=0;exitDy=0;entryX=0.5;entryY=0;entryDx=0;entryDy=0;startArrow=classic;startFill=1;" edge="1" parent="1" source="1MMJRp5JfC30P-ifHzQU-55" target="1MMJRp5JfC30P-ifHzQU-5">
          <mxGeometry relative="1" as="geometry">
            <mxPoint x="390" y="160" as="sourcePoint" />
          </mxGeometry>
        </mxCell>
        <mxCell id="1MMJRp5JfC30P-ifHzQU-3" value="Race Control App&lt;br&gt;&lt;br&gt;Maui Hybrid App" style="rounded=0;whiteSpace=wrap;html=1;" vertex="1" parent="1">
          <mxGeometry x="100" y="585" width="120" height="60" as="geometry" />
        </mxCell>
        <mxCell id="1MMJRp5JfC30P-ifHzQU-30" value="Low Latency Announcements" style="edgeStyle=orthogonalEdgeStyle;rounded=0;orthogonalLoop=1;jettySize=auto;html=1;exitX=1;exitY=0.25;exitDx=0;exitDy=0;entryX=0.25;entryY=1;entryDx=0;entryDy=0;" edge="1" parent="1" source="1MMJRp5JfC30P-ifHzQU-5" target="1MMJRp5JfC30P-ifHzQU-27">
          <mxGeometry relative="1" as="geometry" />
        </mxCell>
        <mxCell id="1MMJRp5JfC30P-ifHzQU-57" style="edgeStyle=orthogonalEdgeStyle;rounded=0;orthogonalLoop=1;jettySize=auto;html=1;exitX=0.5;exitY=0;exitDx=0;exitDy=0;entryX=0.5;entryY=1;entryDx=0;entryDy=0;" edge="1" parent="1" source="1MMJRp5JfC30P-ifHzQU-5" target="1MMJRp5JfC30P-ifHzQU-56">
          <mxGeometry relative="1" as="geometry" />
        </mxCell>
        <mxCell id="1MMJRp5JfC30P-ifHzQU-5" value="Hardware/Timing Controller&lt;br&gt;&lt;br&gt;Console" style="rounded=0;whiteSpace=wrap;html=1;" vertex="1" parent="1">
          <mxGeometry x="220" y="270" width="120" height="60" as="geometry" />
        </mxCell>
        <mxCell id="1MMJRp5JfC30P-ifHzQU-12" value="Hardware Configuration&lt;br&gt;" style="edgeStyle=orthogonalEdgeStyle;rounded=0;orthogonalLoop=1;jettySize=auto;html=1;exitX=0.5;exitY=0;exitDx=0;exitDy=0;exitPerimeter=0;entryX=1;entryY=0.5;entryDx=0;entryDy=0;" edge="1" parent="1" source="1MMJRp5JfC30P-ifHzQU-6" target="1MMJRp5JfC30P-ifHzQU-5">
          <mxGeometry relative="1" as="geometry" />
        </mxCell>
        <mxCell id="1MMJRp5JfC30P-ifHzQU-15" style="edgeStyle=orthogonalEdgeStyle;rounded=0;orthogonalLoop=1;jettySize=auto;html=1;exitX=1;exitY=0.5;exitDx=0;exitDy=0;exitPerimeter=0;entryX=0.75;entryY=0;entryDx=0;entryDy=0;" edge="1" parent="1" source="1MMJRp5JfC30P-ifHzQU-6" target="1MMJRp5JfC30P-ifHzQU-7">
          <mxGeometry relative="1" as="geometry" />
        </mxCell>
        <mxCell id="1MMJRp5JfC30P-ifHzQU-16" value="Timing Events" style="edgeLabel;html=1;align=center;verticalAlign=middle;resizable=0;points=[];" vertex="1" connectable="0" parent="1MMJRp5JfC30P-ifHzQU-15">
          <mxGeometry x="0.0291" y="1" relative="1" as="geometry">
            <mxPoint x="-1" y="73" as="offset" />
          </mxGeometry>
        </mxCell>
        <mxCell id="1MMJRp5JfC30P-ifHzQU-28" value="Timing Events" style="edgeStyle=orthogonalEdgeStyle;rounded=0;orthogonalLoop=1;jettySize=auto;html=1;exitX=0.855;exitY=0;exitDx=0;exitDy=4.35;exitPerimeter=0;entryX=0.75;entryY=1;entryDx=0;entryDy=0;" edge="1" parent="1" source="1MMJRp5JfC30P-ifHzQU-6" target="1MMJRp5JfC30P-ifHzQU-27">
          <mxGeometry relative="1" as="geometry">
            <mxPoint x="611.3" y="369.9999999999999" as="sourcePoint" />
            <mxPoint x="680" y="205.65" as="targetPoint" />
            <Array as="points">
              <mxPoint x="670" y="374" />
            </Array>
          </mxGeometry>
        </mxCell>
        <mxCell id="1MMJRp5JfC30P-ifHzQU-37" style="edgeStyle=orthogonalEdgeStyle;rounded=0;orthogonalLoop=1;jettySize=auto;html=1;exitX=1;exitY=0;exitDx=0;exitDy=27.5;exitPerimeter=0;entryX=0;entryY=0.5;entryDx=0;entryDy=0;" edge="1" parent="1" source="1MMJRp5JfC30P-ifHzQU-6" target="1MMJRp5JfC30P-ifHzQU-36">
          <mxGeometry relative="1" as="geometry" />
        </mxCell>
        <mxCell id="1MMJRp5JfC30P-ifHzQU-38" value="Timing Events" style="edgeLabel;html=1;align=center;verticalAlign=middle;resizable=0;points=[];" vertex="1" connectable="0" parent="1MMJRp5JfC30P-ifHzQU-37">
          <mxGeometry x="-0.0708" y="4" relative="1" as="geometry">
            <mxPoint as="offset" />
          </mxGeometry>
        </mxCell>
        <mxCell id="1MMJRp5JfC30P-ifHzQU-41" value="Timing Events&lt;br&gt;" style="edgeStyle=orthogonalEdgeStyle;rounded=0;orthogonalLoop=1;jettySize=auto;html=1;exitX=0.855;exitY=1;exitDx=0;exitDy=-4.35;exitPerimeter=0;entryX=1;entryY=0.75;entryDx=0;entryDy=0;" edge="1" parent="1" source="1MMJRp5JfC30P-ifHzQU-6" target="1MMJRp5JfC30P-ifHzQU-3">
          <mxGeometry relative="1" as="geometry">
            <Array as="points">
              <mxPoint x="591" y="630" />
            </Array>
          </mxGeometry>
        </mxCell>
        <mxCell id="1MMJRp5JfC30P-ifHzQU-44" value="Event Configuration&lt;br&gt;" style="edgeStyle=orthogonalEdgeStyle;rounded=0;orthogonalLoop=1;jettySize=auto;html=1;exitX=1;exitY=0;exitDx=0;exitDy=52.5;exitPerimeter=0;entryX=0.25;entryY=0;entryDx=0;entryDy=0;" edge="1" parent="1" source="1MMJRp5JfC30P-ifHzQU-6" target="1MMJRp5JfC30P-ifHzQU-7">
          <mxGeometry relative="1" as="geometry" />
        </mxCell>
        <mxCell id="1MMJRp5JfC30P-ifHzQU-53" value="Race Commands" style="edgeStyle=orthogonalEdgeStyle;rounded=0;orthogonalLoop=1;jettySize=auto;html=1;exitX=0.145;exitY=0;exitDx=0;exitDy=4.35;exitPerimeter=0;entryX=1;entryY=0.75;entryDx=0;entryDy=0;" edge="1" parent="1" source="1MMJRp5JfC30P-ifHzQU-6" target="1MMJRp5JfC30P-ifHzQU-5">
          <mxGeometry relative="1" as="geometry">
            <Array as="points">
              <mxPoint x="549" y="315" />
            </Array>
          </mxGeometry>
        </mxCell>
        <mxCell id="1MMJRp5JfC30P-ifHzQU-6" value="Event Store" style="shape=cylinder3;whiteSpace=wrap;html=1;boundedLbl=1;backgroundOutline=1;size=15;" vertex="1" parent="1">
          <mxGeometry x="540" y="370" width="60" height="80" as="geometry" />
        </mxCell>
        <mxCell id="1MMJRp5JfC30P-ifHzQU-61" style="edgeStyle=orthogonalEdgeStyle;rounded=0;orthogonalLoop=1;jettySize=auto;html=1;exitX=0.5;exitY=1;exitDx=0;exitDy=0;entryX=0.5;entryY=0;entryDx=0;entryDy=0;" edge="1" parent="1" source="1MMJRp5JfC30P-ifHzQU-7" target="1MMJRp5JfC30P-ifHzQU-59">
          <mxGeometry relative="1" as="geometry">
            <Array as="points">
              <mxPoint x="720" y="670" />
              <mxPoint x="1120" y="670" />
            </Array>
          </mxGeometry>
        </mxCell>
        <mxCell id="1MMJRp5JfC30P-ifHzQU-7" value="Scoreboard&lt;br&gt;&lt;br&gt;Blazor Server" style="rounded=0;whiteSpace=wrap;html=1;" vertex="1" parent="1">
          <mxGeometry x="660" y="585" width="120" height="60" as="geometry" />
        </mxCell>
        <mxCell id="1MMJRp5JfC30P-ifHzQU-13" value="Hardware Configuration&lt;br&gt;" style="edgeStyle=orthogonalEdgeStyle;rounded=0;orthogonalLoop=1;jettySize=auto;html=1;exitX=0.5;exitY=0;exitDx=0;exitDy=0;entryX=0;entryY=0;entryDx=0;entryDy=52.5;entryPerimeter=0;" edge="1" parent="1" source="1MMJRp5JfC30P-ifHzQU-3" target="1MMJRp5JfC30P-ifHzQU-6">
          <mxGeometry relative="1" as="geometry">
            <Array as="points">
              <mxPoint x="160" y="423" />
            </Array>
          </mxGeometry>
        </mxCell>
        <mxCell id="1MMJRp5JfC30P-ifHzQU-26" value="Race Commands" style="edgeStyle=orthogonalEdgeStyle;rounded=0;orthogonalLoop=1;jettySize=auto;html=1;exitX=0.25;exitY=0;exitDx=0;exitDy=0;entryX=0;entryY=0.5;entryDx=0;entryDy=0;entryPerimeter=0;" edge="1" parent="1" source="1MMJRp5JfC30P-ifHzQU-3" target="1MMJRp5JfC30P-ifHzQU-6">
          <mxGeometry relative="1" as="geometry">
            <Array as="points">
              <mxPoint x="130" y="410" />
            </Array>
          </mxGeometry>
        </mxCell>
        <mxCell id="1MMJRp5JfC30P-ifHzQU-62" style="edgeStyle=orthogonalEdgeStyle;rounded=0;orthogonalLoop=1;jettySize=auto;html=1;exitX=0.5;exitY=0;exitDx=0;exitDy=0;entryX=0.5;entryY=0;entryDx=0;entryDy=0;" edge="1" parent="1" source="1MMJRp5JfC30P-ifHzQU-27" target="1MMJRp5JfC30P-ifHzQU-59">
          <mxGeometry relative="1" as="geometry">
            <mxPoint x="1120" y="752.2221883138021" as="targetPoint" />
            <Array as="points">
              <mxPoint x="640" y="70" />
              <mxPoint x="1120" y="70" />
            </Array>
          </mxGeometry>
        </mxCell>
        <mxCell id="1MMJRp5JfC30P-ifHzQU-27" value="Announcer Service&lt;br&gt;&lt;br&gt;Console / Signal R Server" style="rounded=0;whiteSpace=wrap;html=1;" vertex="1" parent="1">
          <mxGeometry x="580" y="150" width="120" height="60" as="geometry" />
        </mxCell>
        <mxCell id="1MMJRp5JfC30P-ifHzQU-33" value="Low Latency announcements should happen from the service itself and should not be transmitted to clients. This should be running on the device with the main loud speaker plugged into. Low latency events are things such as race start, detection and other immediately time critical things" style="text;html=1;strokeColor=none;fillColor=none;align=center;verticalAlign=middle;whiteSpace=wrap;rounded=0;" vertex="1" parent="1">
          <mxGeometry x="710" y="120" width="160" height="130" as="geometry" />
        </mxCell>
        <mxCell id="1MMJRp5JfC30P-ifHzQU-34" style="edgeStyle=orthogonalEdgeStyle;rounded=0;orthogonalLoop=1;jettySize=auto;html=1;exitX=0.5;exitY=1;exitDx=0;exitDy=0;entryX=0;entryY=0;entryDx=0;entryDy=27.5;entryPerimeter=0;" edge="1" parent="1" source="1MMJRp5JfC30P-ifHzQU-5" target="1MMJRp5JfC30P-ifHzQU-6">
          <mxGeometry relative="1" as="geometry" />
        </mxCell>
        <mxCell id="1MMJRp5JfC30P-ifHzQU-35" value="Timing Events" style="edgeLabel;html=1;align=center;verticalAlign=middle;resizable=0;points=[];" vertex="1" connectable="0" parent="1MMJRp5JfC30P-ifHzQU-34">
          <mxGeometry x="0.0392" relative="1" as="geometry">
            <mxPoint as="offset" />
          </mxGeometry>
        </mxCell>
        <mxCell id="1MMJRp5JfC30P-ifHzQU-40" value="Timing Events" style="edgeStyle=orthogonalEdgeStyle;rounded=0;orthogonalLoop=1;jettySize=auto;html=1;exitX=1;exitY=0.5;exitDx=0;exitDy=0;entryX=0;entryY=0.5;entryDx=0;entryDy=0;" edge="1" parent="1" source="1MMJRp5JfC30P-ifHzQU-36" target="1MMJRp5JfC30P-ifHzQU-39">
          <mxGeometry relative="1" as="geometry">
            <mxPoint x="1050" y="426" as="targetPoint" />
          </mxGeometry>
        </mxCell>
        <mxCell id="1MMJRp5JfC30P-ifHzQU-36" value="Internet Relay&lt;br&gt;&lt;br&gt;Console" style="rounded=0;whiteSpace=wrap;html=1;" vertex="1" parent="1">
          <mxGeometry x="790" y="366" width="120" height="60" as="geometry" />
        </mxCell>
        <mxCell id="1MMJRp5JfC30P-ifHzQU-49" style="edgeStyle=orthogonalEdgeStyle;rounded=0;orthogonalLoop=1;jettySize=auto;html=1;exitX=1;exitY=0.5;exitDx=0;exitDy=0;entryX=0.5;entryY=0;entryDx=0;entryDy=0;" edge="1" parent="1" source="1MMJRp5JfC30P-ifHzQU-39" target="1MMJRp5JfC30P-ifHzQU-59">
          <mxGeometry relative="1" as="geometry">
            <mxPoint x="1330" y="545" as="targetPoint" />
          </mxGeometry>
        </mxCell>
        <mxCell id="1MMJRp5JfC30P-ifHzQU-39" value="Offsite Service&lt;br&gt;ASP NET WEB API" style="rounded=0;whiteSpace=wrap;html=1;" vertex="1" parent="1">
          <mxGeometry x="950" y="550" width="120" height="60" as="geometry" />
        </mxCell>
        <mxCell id="1MMJRp5JfC30P-ifHzQU-43" value="Event Configuration" style="edgeStyle=orthogonalEdgeStyle;rounded=0;orthogonalLoop=1;jettySize=auto;html=1;exitX=1;exitY=0.5;exitDx=0;exitDy=0;entryX=0.5;entryY=1;entryDx=0;entryDy=0;entryPerimeter=0;" edge="1" parent="1" source="1MMJRp5JfC30P-ifHzQU-3" target="1MMJRp5JfC30P-ifHzQU-6">
          <mxGeometry relative="1" as="geometry" />
        </mxCell>
        <mxCell id="1MMJRp5JfC30P-ifHzQU-50" value="Services" style="rounded=0;whiteSpace=wrap;html=1;" vertex="1" parent="1">
          <mxGeometry x="1170" y="60" width="81" height="40" as="geometry" />
        </mxCell>
        <mxCell id="1MMJRp5JfC30P-ifHzQU-51" value="Service Clients" style="ellipse;whiteSpace=wrap;html=1;" vertex="1" parent="1">
          <mxGeometry x="1170" y="120" width="80" height="40" as="geometry" />
        </mxCell>
        <mxCell id="1MMJRp5JfC30P-ifHzQU-52" value="Key" style="text;html=1;strokeColor=none;fillColor=none;align=center;verticalAlign=middle;whiteSpace=wrap;rounded=0;" vertex="1" parent="1">
          <mxGeometry x="1170" y="20" width="60" height="30" as="geometry" />
        </mxCell>
        <mxCell id="1MMJRp5JfC30P-ifHzQU-54" value="Lap RF" style="shape=hexagon;perimeter=hexagonPerimeter2;whiteSpace=wrap;html=1;fixedSize=1;" vertex="1" parent="1">
          <mxGeometry x="80" y="50" width="120" height="80" as="geometry" />
        </mxCell>
        <mxCell id="1MMJRp5JfC30P-ifHzQU-55" value="Rotor Hazard Hardware" style="shape=hexagon;perimeter=hexagonPerimeter2;whiteSpace=wrap;html=1;fixedSize=1;" vertex="1" parent="1">
          <mxGeometry x="370" y="50" width="120" height="80" as="geometry" />
        </mxCell>
        <mxCell id="1MMJRp5JfC30P-ifHzQU-56" value="Nae Time Hardware" style="shape=hexagon;perimeter=hexagonPerimeter2;whiteSpace=wrap;html=1;fixedSize=1;" vertex="1" parent="1">
          <mxGeometry x="220" y="50" width="120" height="80" as="geometry" />
        </mxCell>
        <mxCell id="1MMJRp5JfC30P-ifHzQU-58" value="Hardware Module" style="shape=hexagon;perimeter=hexagonPerimeter2;whiteSpace=wrap;html=1;fixedSize=1;" vertex="1" parent="1">
          <mxGeometry x="1170" y="170" width="100" height="50" as="geometry" />
        </mxCell>
        <mxCell id="1MMJRp5JfC30P-ifHzQU-59" value="Nae Time Client&lt;br&gt;&lt;br&gt;Blazor Warm / Maui Hybrid App" style="ellipse;whiteSpace=wrap;html=1;" vertex="1" parent="1">
          <mxGeometry x="1060" y="730" width="120" height="80" as="geometry" />
        </mxCell>
      </root>
    </mxGraphModel>
  </diagram>
</mxfile>
